<?xml version="1.0" encoding="utf-8"?>
<!-- Generator: Adobe Illustrator 24.1.1, SVG Export Plug-In . SVG Version: 6.00 Build 0)  -->
<svg version="1.1" id="Layer_1" xmlns="http://www.w3.org/2000/svg" xmlns:xlink="http://www.w3.org/1999/xlink" x="0px" y="0px"
	 viewBox="0 0 512 512" style="enable-background:new 0 0 512 512;" xml:space="preserve">
<style type="text/css">
	.st0{fill:#2D4452;}
	.st1{fill:#233540;}
	.st2{fill:#FFD464;}
	.st3{fill:#F2C95F;}
	.st4{fill:#CC803D;}
	.st5{fill:#F5F5F5;}
	.st6{fill:#E6E6E6;}
</style>
<g id="XMLID_1_">
	<circle id="XMLID_3_" class="st0" cx="256" cy="255.6" r="255.6"/>
	<path id="XMLID_4_" class="st1" d="M462.1,406.6c-0.8-3.1-2.4-5.5-3.1-7.9c-0.8-3.9-2.4-7.1-3.9-10.2c-0.8-3.9-2.4-7.1-3.9-10.2
		c-0.8-3.9-2.4-7.9-4.7-11c-0.8-2.4-1.6-4.7-3.1-7.1c-0.8-3.9-2.4-7.1-3.9-10.2c-0.8-3.9-2.4-7.1-3.9-10.2
		c-0.8-3.9-2.4-7.1-3.9-10.2c-0.8-3.9-2.4-7.1-3.9-10.2c-0.8-3.9-2.4-7.1-3.9-10.2c-0.8-3.9-2.4-7.1-3.9-10.2
		c-0.8-3.9-2.4-7.1-3.9-10.2c-0.8-3.9-2.4-7.9-4.7-11c-0.8-2.4-1.6-4.7-3.1-7.1c-0.8-3.9-2.4-7.1-3.9-10.2
		c-0.8-3.9-2.4-7.1-3.9-10.2c-0.8-3.9-2.4-7.1-3.9-10.2c-0.8-3.9-2.4-7.1-3.9-10.2c-0.8-3.9-2.4-7.1-3.9-10.2
		c-0.8-3.9-2.4-7.1-3.9-10.2c-0.8-3.9-2.4-7.1-3.9-10.2c-0.8-3.9-2.4-7.9-4.7-11c-0.8-2.4-1.6-4.7-3.1-7.1
		c-0.8-3.9-2.4-7.1-3.9-10.2c-0.8-3.9-2.4-7.1-3.9-10.2c-0.8-3.9-2.4-7.1-3.9-10.2c-1.6-4.7-3.1-8.7-5.5-12.6
		c-7.9-18.9-26.7-32.2-48.8-32.2c-0.8,0-0.8,0-1.6,0c-8.7-16.5-26-28.3-46.4-28.3c-1.6,0-2.4,0-3.9,0v-1.6c-1.6,0-2.4-0.8-3.9-0.8
		l0,0c-15.7,0-29.1,11.8-37,24.4c-3.9-2.4-8.7-0.8-13.4-4.7l0,0c-1.6,0-3.1,0.8-4.7,0.8c-1.6,0-3.1,0.8-5.5,0.8
		c-1.6,0-3.1,0.8-3.9,0.8c-23.6,1.6-42.5,18.9-47.2,41.7c-11,7.1-16.5,18.1-16.5,30.7c0,2.4,0,4.7,0.8,7.1
		c0.8,6.3,2.4,11.8,5.5,16.5c0,0.8,0.8,1.6,0.8,2.4c0.8,2.4,1.6,3.9,2.4,6.3c0.8,1.6,0.8,3.1,1.6,4.7c0.8,2.4,1.6,3.9,2.4,5.5
		c0.8,1.6,0.8,3.1,1.6,4.7c0.8,2.4,1.6,3.9,2.4,5.5c0,0.8,0,0.8,0,1.6v84.9c-11,0-19.7,8.7-19.7,19.7c0,1.6,0,3.1,0.8,4.7
		c0,0.8,0,1.6,0.8,2.4c0.8,3.1,1.6,6.3,3.9,8.7c0,0.8,0,0.8,0,1.6c0.8,3.1,1.6,6.3,3.9,8.7c0,0.8,0,0.8,0,1.6
		c0.8,3.1,1.6,6.3,3.9,8.7c0,0.8,0,0.8,0,1.6c0.8,3.1,1.6,6.3,3.9,8.7c0,0.8,0,0.8,0,1.6c0.8,3.1,1.6,6.3,3.9,8.7
		c0.8,3.1,1.6,5.5,3.9,8.7c0,0.8,0,0.8,0,1.6c0.8,3.1,1.6,6.3,3.9,8.7c0,0.8,0,0.8,0,1.6c0.8,3.1,1.6,6.3,3.9,8.7c0,0.8,0,0.8,0,1.6
		c0.8,3.1,1.6,6.3,3.9,8.7c0,0.8,0,0.8,0,1.6c0.8,3.1,1.6,6.3,3.9,8.7c0,0.8,0,0.8,0,1.6c0.8,3.1,1.6,6.3,3.9,8.7c0,0.8,0,0.8,0,1.6
		c0.8,3.1,1.6,6.3,3.9,8.7c0,0.8,0,0.8,0,1.6c0.8,3.1,1.6,6.3,3.9,8.7c0,0.8,0,0.8,0,1.6c0.8,3.1,1.6,6.3,3.9,8.7
		c0.8,3.1,1.6,5.5,3.9,8.7c0,0.8,0,0.8,0,1.6c0.8,3.1,1.6,6.3,3.9,8.7c0,0.8,0,0.8,0,1.6c0.8,3.1,1.6,5.5,3.1,7.9
		c21.2,5.5,44,8.7,66.9,8.7C340.9,511.2,415.7,470.3,462.1,406.6z"/>
	<path id="XMLID_5_" class="st2" d="M336.2,405.8c0,8.7-7.1,15.7-15.7,15.7H175.8c-8.7,0-15.7-7.1-15.7-15.7V194.3
		c0-8.7,7.1-15.7,15.7-15.7h143.9c8.7,0,15.7,7.1,15.7,15.7v211.6H336.2z"/>
	<path id="XMLID_8_" class="st2" d="M367.7,338.2h-48V222.6h48c13.4,0,23.6,11.8,23.6,25.2v67.6
		C392.1,328.7,381.1,338.2,367.7,338.2z M336.2,322.5h32.2c4.7,0,7.9-2.4,7.9-7.1v-67.6c0-4.7-3.9-9.4-7.9-9.4h-32.2V322.5z"/>
	<rect id="XMLID_9_" x="327.6" y="238.3" class="st3" width="7.9" height="84.2"/>
	<path id="XMLID_10_" class="st3" d="M392.1,226.5c0-2.4-1.6-3.9-3.9-3.9c-2.4,0-3.9,1.6-3.9,3.9v107.7c0,2.4,1.6,3.9,3.9,3.9
		c2.4,0,3.9-1.6,3.9-3.9V226.5z"/>
	<path id="XMLID_11_" class="st3" d="M336.2,184.8c0-3.1-2.4-6.3-6.3-6.3c-3.1,0-6.3,2.4-6.3,6.3v232c0,3.1,2.4,6.3,6.3,6.3
		c3.1,0,6.3-2.4,6.3-6.3V184.8z"/>
	<path id="XMLID_12_" class="st4" d="M184.4,351.6c-4.7,0-7.9-3.9-7.9-7.9V235.9c0-4.7,3.9-7.9,7.9-7.9c4.7,0,7.9,3.9,7.9,7.9v107.7
		C192.3,347.6,188.4,351.6,184.4,351.6z"/>
	<path id="XMLID_13_" class="st4" d="M215.9,351.6c-4.7,0-7.9-3.9-7.9-7.9V235.9c0-4.7,3.9-7.9,7.9-7.9c4.7,0,7.9,3.9,7.9,7.9v107.7
		C223.8,347.6,220.6,351.6,215.9,351.6z"/>
	<path id="XMLID_14_" class="st4" d="M311.8,351.6c-4.7,0-7.9-3.9-7.9-7.9V235.9c0-4.7,3.9-7.9,7.9-7.9c4.7,0,7.9,3.9,7.9,7.9v107.7
		C319.7,347.6,316.6,351.6,311.8,351.6z"/>
	<path id="XMLID_15_" class="st4" d="M248.1,351.6c-4.7,0-7.9-3.9-7.9-7.9V235.9c0-4.7,3.9-7.9,7.9-7.9c4.7,0,7.9,3.9,7.9,7.9v107.7
		C256,347.6,252.1,351.6,248.1,351.6z"/>
	<path id="XMLID_16_" class="st4" d="M279.6,351.6c-4.7,0-7.9-3.9-7.9-7.9V235.9c0-4.7,3.9-7.9,7.9-7.9c4.7,0,7.9,3.9,7.9,7.9v107.7
		C288.2,347.6,284.3,351.6,279.6,351.6z"/>
	<path id="XMLID_17_" class="st5" d="M160,190.3h-19.7v117.2c-11,0-19.7,8.7-19.7,19.7s8.7,19.7,19.7,19.7c11,0,19.7-9.4,19.7-20.4
		v-0.8l0,0V190.3z"/>
	<path id="XMLID_18_" class="st6" d="M160,190.3h-7.9v136.1l0,0v0.8c0,9.4-7.1,18.1-15.7,19.7c1.6,0,2.4,0.8,3.9,0.8
		c11,0,19.7-9.4,19.7-20.4v-0.8l0,0V190.3z"/>
	<path id="XMLID_19_" class="st5" d="M304.8,104.6c-0.8,0-0.8,0-1.6,0c-8.7-16.5-26-28.3-46.4-28.3c-18.9,0-35.4,10.2-44.8,25.2
		c-7.1-3.1-14.9-5.5-22.8-5.5C164,96,142.7,114,138,137.6c-10.2,7.9-15.7,18.9-15.7,31.5c0,21.2,17.3,38.5,38.5,38.5
		c7.9,0,15.7-2.4,21.2-6.3c2.4,0,3.9,0.8,6.3,0.8c2.4,0,3.9,0,6.3,0c9.4,7.9,21.2,12.6,33.8,12.6c15.7,0,29.9-7.1,40.1-18.1
		c9.4,8.7,22,14.2,36.2,14.2c29.1,0,52.7-23.6,52.7-52.7C357.5,128.2,333.9,104.6,304.8,104.6z"/>
	<path id="XMLID_20_" class="st6" d="M304.8,104.6c-0.8,0-0.8,0-1.6,0c-8.7-16.5-26-28.3-46.4-28.3c-2.4,0-5.5,0-7.9,0.8
		c16.5,2.4,30.7,13.4,38.5,27.5c0.8,0,0.8,0,1.6,0c29.1,0,52.7,23.6,52.7,52.7c0,26-19.7,48-44.8,51.9c2.4,0.8,5.5,0.8,7.9,0.8
		c29.1,0,52.7-23.6,52.7-52.7C357.5,128.2,333.9,104.6,304.8,104.6z"/>
	<path id="XMLID_21_" class="st6" d="M195.4,102.2c0.8-1.6,1.6-3.1,3.1-3.9c-3.1-0.8-6.3-0.8-10.2-0.8c-3.1,0-5.5,0-7.9,0.8
		C186,98.3,190.7,99.9,195.4,102.2z"/>
	<path id="XMLID_22_" class="st6" d="M259.9,188.8c-7.9,9.4-26,22.8-39.3,24.4c2.4,0.8,5.5,0.8,7.9,0.8c16.5,0,32.2-7.9,40.1-18.1
		C265.4,193.5,262.3,191.1,259.9,188.8z"/>
</g>
</svg>
